<svg width="640" height="480" viewBox="0 0 640 480" fill="none" xmlns="http://www.w3.org/2000/svg">
  <rect width="640" height="480" rx="40" fill="#F2FBF8"/>
  <circle cx="488" cy="112" r="58" fill="#CDEFE5"/>
  <circle cx="126" cy="376" r="44" fill="#D8EEF8"/>
  <rect x="116" y="108" width="408" height="266" rx="28" fill="white"/>
  <rect x="156" y="148" width="148" height="188" rx="24" fill="#0E7490"/>
  <circle cx="230" cy="184" r="36" fill="#FFDCC7"/>
  <path d="M182 258C182 228.176 206.176 204 236 204H224C253.824 204 278 228.176 278 258V336H182V258Z" fill="#F8FAFC"/>
  <path d="M198 178C198 151.49 219.49 130 246 130C272.51 130 294 151.49 294 178V192H198V178Z" fill="#083344"/>
  <rect x="222" y="244" width="16" height="58" rx="8" fill="#14B8A6"/>
  <rect x="201" y="265" width="58" height="16" rx="8" fill="#14B8A6"/>
  <rect x="344" y="160" width="132" height="18" rx="9" fill="#DDEAF0"/>
  <rect x="344" y="202" width="118" height="14" rx="7" fill="#E5EEF3"/>
  <rect x="344" y="236" width="98" height="14" rx="7" fill="#E5EEF3"/>
  <rect x="344" y="270" width="112" height="14" rx="7" fill="#E5EEF3"/>
  <rect x="344" y="304" width="88" height="14" rx="7" fill="#E5EEF3"/>
  <rect x="430" y="352" width="132" height="88" rx="24" fill="#0F766E"/>
  <circle cx="470" cy="395" r="18" fill="#CCFBF1"/>
  <path d="M468 387H472V402H468V387Z" fill="#0F766E"/>
  <path d="M463 392H477V396H463V392Z" fill="#0F766E"/>
  <rect x="492" y="387" width="48" height="8" rx="4" fill="#CCFBF1"/>
  <rect x="492" y="401" width="34" height="8" rx="4" fill="#99F6E4"/>
</svg>
